<?xml version="1.0" standalone="no"?>
<!DOCTYPE svg PUBLIC "-//W3C//DTD SVG 20010904//EN"
 "http://www.w3.org/TR/2001/REC-SVG-20010904/DTD/svg10.dtd">
<svg version="1.0" xmlns="http://www.w3.org/2000/svg"
 width="1040.000000pt" height="1040.000000pt" viewBox="0 0 1040.000000 1040.000000"
 preserveAspectRatio="xMidYMid meet">
<metadata>
Created by potrace 1.14, written by Peter Selinger 2001-2017
</metadata>
<g transform="translate(0.000000,1040.000000) scale(0.100000,-0.100000)"
fill="#000000" stroke="none">
<path d="M3553 9435 c-28 -5 -55 -13 -59 -17 -4 -5 -16 -8 -27 -8 -30 0 -198
-80 -225 -107 -7 -7 -17 -13 -22 -13 -12 0 -163 -150 -191 -190 -13 -19 -31
-47 -38 -62 -8 -16 -18 -28 -23 -28 -4 0 -8 -7 -8 -15 0 -8 -8 -29 -18 -47
-18 -32 -37 -92 -30 -94 2 0 -3 -8 -11 -17 -7 -10 -11 -17 -7 -17 3 0 2 -10
-3 -23 -24 -62 -31 -271 -12 -343 5 -21 12 -50 15 -64 4 -26 12 -51 26 -85 17
-41 23 -60 22 -67 -1 -3 5 -12 13 -18 8 -7 15 -16 15 -21 0 -42 172 -237 261
-297 89 -60 236 -123 322 -138 45 -8 280 -13 292 -6 5 3 21 7 36 9 77 8 279
94 301 127 5 6 8 7 8 1 0 -7 3 -7 8 0 4 6 23 22 42 36 41 31 95 84 130 128 14
17 33 40 42 52 10 12 20 30 23 40 4 11 9 20 13 20 4 1 738 2 1632 3 1556 2
1628 1 1695 -16 143 -39 244 -137 301 -293 13 -37 13 -173 0 -222 -16 -57 -46
-123 -58 -123 -4 0 -8 -6 -8 -12 -1 -13 -44 -68 -54 -68 -3 0 -17 -11 -31 -24
-30 -28 -115 -70 -165 -82 -52 -12 -5722 -11 -5732 1 -4 5 -34 44 -66 85 -72
92 -120 136 -209 194 -74 48 -160 85 -258 112 -72 20 -281 27 -345 13 -25 -6
-53 -13 -62 -15 -10 -2 -26 -6 -35 -8 -54 -13 -223 -94 -223 -107 0 -5 -6 -9
-13 -9 -7 0 -28 -14 -47 -31 -79 -69 -110 -98 -110 -103 0 -4 -14 -21 -31 -38
-72 -76 -159 -273 -176 -401 -14 -107 -7 -246 18 -342 42 -158 158 -340 277
-437 75 -60 243 -156 265 -150 4 1 24 -5 44 -13 20 -8 53 -17 73 -19 20 -1 41
-5 46 -8 12 -8 229 -3 274 6 54 11 144 38 158 49 6 5 12 7 12 4 0 -10 111 52
174 97 74 53 171 156 211 224 11 17 22 33 25 33 3 1 1274 3 2825 4 1551 2
2840 6 2865 9 25 3 59 8 75 10 17 3 30 5 30 6 0 1 11 4 25 6 62 8 263 83 312
116 14 10 29 18 33 18 4 0 27 14 52 30 24 17 48 30 52 30 5 0 12 7 15 16 4 9
9 14 12 12 10 -11 193 162 244 230 14 19 31 40 38 47 6 8 12 16 12 19 0 3 13
24 29 48 16 24 43 72 61 108 17 36 38 77 46 93 8 15 12 27 9 27 -3 0 -1 9 5
20 15 28 50 165 56 220 3 25 9 59 13 75 8 34 6 218 -3 285 -5 43 -10 69 -22
135 -3 17 -19 71 -36 120 -101 296 -287 526 -562 694 -36 23 -68 41 -71 41 -3
0 -32 13 -65 29 -33 16 -60 28 -60 25 0 -2 -20 5 -45 16 -25 11 -45 17 -45 15
0 -3 -10 -1 -23 4 -13 5 -41 12 -61 15 -21 4 -41 8 -45 11 -25 15 -298 18
-1735 19 l-1608 1 -17 23 c-24 34 -113 144 -132 163 -106 106 -290 198 -454
228 -72 12 -230 11 -302 -4z m280 -339 c25 -6 49 -15 53 -19 4 -4 15 -7 24 -7
20 0 115 -61 159 -103 50 -46 115 -152 136 -221 28 -94 24 -236 -10 -321 -37
-92 -46 -106 -130 -190 -49 -50 -136 -107 -159 -106 -3 0 -23 -7 -43 -16 -44
-19 -206 -26 -261 -11 -42 10 -154 61 -179 80 -101 79 -176 193 -203 307 -14
58 -16 161 -5 213 10 46 52 145 78 182 67 96 187 181 298 210 66 17 179 18
242 2z m-2413 -1704 c25 -7 50 -15 55 -17 33 -9 75 -31 75 -37 0 -4 6 -8 13
-8 21 0 113 -87 150 -143 91 -136 112 -272 68 -435 -7 -24 -21 -58 -31 -75
-11 -18 -25 -43 -31 -57 -5 -13 -36 -50 -68 -80 -102 -100 -204 -143 -343
-145 -151 -3 -262 40 -370 145 -38 36 -68 68 -68 72 0 4 -13 29 -28 55 -16 27
-31 60 -35 73 -3 14 -8 36 -11 50 -12 45 -13 151 -4 203 34 184 191 352 377
402 60 17 194 15 251 -3z"/>
<path d="M9284 9019 c-2 -4 4 -17 14 -30 77 -102 193 -315 250 -459 41 -105
93 -282 108 -365 13 -82 22 -141 23 -155 0 -8 3 -35 7 -60 8 -61 9 -309 1
-390 -10 -95 -16 -142 -22 -170 -2 -14 -10 -50 -16 -80 -5 -30 -15 -69 -20
-86 -5 -17 -11 -40 -13 -50 -6 -29 -55 -175 -70 -209 -7 -16 -22 -51 -32 -77
-11 -27 -23 -48 -27 -48 -5 0 -6 -4 -2 -9 3 -5 -2 -17 -11 -25 -8 -9 -13 -16
-10 -16 4 0 -5 -18 -19 -40 -14 -22 -25 -42 -25 -45 0 -17 -149 -236 -211
-310 -117 -138 -429 -415 -467 -415 -6 0 -12 -4 -14 -8 -3 -8 -104 -72 -113
-72 -2 0 -28 -14 -57 -31 -29 -17 -57 -33 -63 -34 -40 -11 -55 -19 -55 -28 0
-6 -3 -8 -6 -4 -4 3 -20 -1 -36 -9 -28 -14 -210 -82 -226 -84 -4 0 -25 -6 -47
-12 -22 -6 -49 -12 -60 -14 -54 -10 -190 -38 -193 -40 -4 -3 61 -98 70 -102 4
-2 8 -8 8 -13 0 -4 18 -34 39 -66 165 -245 401 -605 401 -612 0 -5 4 -11 8
-13 11 -4 72 -94 72 -106 0 -6 3 -12 8 -14 4 -1 25 -30 47 -63 21 -33 41 -62
44 -65 8 -7 29 -41 38 -60 4 -8 9 -17 12 -20 6 -5 56 -78 76 -112 5 -9 37 -56
70 -105 33 -48 62 -92 65 -98 7 -13 63 -99 70 -105 10 -10 31 -45 36 -62 4
-10 9 -18 13 -18 3 0 24 -29 46 -65 22 -36 43 -65 47 -65 4 0 8 -5 8 -11 0 -6
20 -40 45 -76 25 -35 45 -68 45 -73 0 -4 3 -10 8 -12 10 -4 262 -386 262 -397
0 -5 4 -11 8 -13 11 -4 152 -216 152 -228 0 -6 4 -10 8 -10 5 0 17 -16 28 -35
10 -19 22 -35 26 -35 5 0 8 -6 8 -14 0 -8 6 -21 13 -28 21 -23 77 -108 77
-117 0 -5 3 -11 8 -13 6 -3 179 -257 192 -283 8 -17 44 -70 51 -75 3 -3 8 -9
10 -15 8 -21 223 -340 231 -343 4 -2 8 -8 8 -12 0 -8 158 -250 163 -250 2 0 0
7171 -2 7180 -2 8 -1102 6 -1107 -1z"/>
<path d="M2925 6038 c-27 -5 -59 -11 -70 -12 -43 -7 -183 -68 -240 -103 -120
-76 -251 -209 -288 -295 -6 -16 -15 -28 -19 -28 -4 0 -8 -8 -8 -17 0 -10 -7
-27 -15 -37 -8 -10 -12 -23 -9 -27 3 -5 1 -9 -4 -9 -6 0 -24 -52 -38 -112 -1
-5 -2 -9 -4 -10 -7 -9 -14 -108 -13 -193 0 -118 7 -171 29 -239 20 -62 84
-200 96 -204 4 -2 8 -10 8 -18 0 -8 5 -14 10 -14 6 0 10 -6 10 -13 0 -19 124
-145 190 -193 59 -44 218 -124 245 -124 9 0 24 -4 34 -9 56 -31 310 -35 421
-7 201 50 394 184 504 350 l34 51 1198 -1 c660 0 1213 -4 1230 -7 162 -34 279
-144 332 -315 16 -51 9 -189 -13 -247 -51 -135 -163 -232 -315 -273 -8 -2
-1056 -5 -2328 -6 l-2313 -1 -41 59 c-62 88 -206 226 -236 226 -6 0 -12 4 -14
9 -3 7 -143 83 -150 80 -2 0 -10 2 -18 5 -119 42 -316 55 -440 31 -41 -9 -83
-20 -93 -26 -10 -5 -22 -7 -27 -4 -6 4 -10 1 -10 -6 0 -7 -3 -10 -6 -7 -3 3
-37 -10 -75 -28 -243 -118 -411 -341 -468 -619 -8 -40 -7 -228 2 -285 8 -54
21 -105 36 -142 6 -16 7 -28 3 -28 -4 0 -2 -4 3 -8 6 -4 25 -37 44 -75 67
-135 189 -263 326 -343 28 -15 52 -29 55 -30 3 0 21 -8 41 -17 19 -8 48 -19
65 -23 16 -4 34 -10 39 -14 17 -13 106 -23 216 -26 108 -2 195 11 279 41 25 9
50 18 55 19 21 5 120 59 123 67 2 5 8 9 13 9 32 0 180 142 237 228 19 28 42
53 51 53 9 1 772 2 1696 3 1219 1 1695 -1 1735 -10 124 -25 233 -107 288 -216
37 -73 42 -91 49 -175 9 -117 -35 -232 -123 -318 -62 -61 -71 -68 -115 -88
-86 -40 -100 -40 -913 -41 l-789 -1 -43 58 c-87 120 -185 206 -309 274 -54 29
-177 71 -234 80 -58 9 -275 8 -321 -2 -144 -29 -315 -118 -408 -212 -24 -23
-46 -43 -50 -44 -9 0 -82 -102 -115 -159 -26 -47 -75 -161 -82 -195 -12 -54
-25 -124 -25 -140 -3 -170 1 -220 29 -316 18 -62 76 -197 90 -209 3 -3 13 -18
20 -33 44 -84 223 -239 341 -294 131 -61 212 -78 370 -77 131 1 168 6 245 33
30 11 55 18 55 16 0 -2 33 13 74 35 133 69 248 169 326 284 l35 52 3122 -1
c1718 0 3123 3 3123 7 0 6 -565 864 -587 893 -7 8 -106 156 -138 206 -31 49
-56 86 -65 99 -15 21 -112 169 -125 190 -16 25 -89 134 -95 140 -7 7 -29 42
-37 60 -4 8 -12 21 -19 30 -27 32 -414 621 -414 629 0 4 -9 16 -20 26 -11 10
-20 24 -20 31 0 7 -4 14 -8 16 -10 4 -72 96 -72 108 0 4 -3 10 -7 12 -11 4
-73 97 -73 107 0 5 -3 11 -7 13 -11 4 -53 65 -53 75 0 5 -11 20 -25 35 -14 15
-25 29 -25 32 0 5 -392 601 -408 621 -4 6 -17 25 -27 43 -11 17 -23 32 -27 32
-4 0 -8 6 -8 13 0 7 -7 22 -15 32 -9 11 -119 175 -245 365 -125 190 -233 350
-239 357 -6 7 -11 16 -11 20 0 5 -10 19 -23 33 l-23 25 -1523 0 c-1391 0
-1525 1 -1542 16 -11 9 -19 20 -19 24 0 13 -63 89 -124 148 -50 50 -175 141
-195 142 -3 1 -19 8 -36 17 -122 63 -340 93 -490 66z m260 -342 c66 -15 174
-77 227 -130 103 -101 148 -204 153 -351 3 -84 0 -110 -19 -166 -43 -127 -124
-228 -232 -289 -48 -28 -69 -36 -139 -57 -39 -11 -190 -10 -236 2 -111 30
-196 84 -269 171 -231 278 -109 693 238 810 52 17 84 21 156 19 50 -1 105 -6
121 -9z m-2214 -1700 c15 -3 44 -14 65 -23 22 -9 41 -17 44 -18 3 0 28 -16 55
-35 61 -42 130 -113 147 -151 7 -16 16 -29 20 -29 5 0 8 -8 8 -18 0 -10 4 -22
8 -27 22 -26 37 -107 36 -200 0 -106 -11 -150 -59 -242 -30 -56 -138 -173
-160 -173 -8 0 -18 -6 -22 -13 -8 -14 -67 -40 -141 -62 -59 -18 -214 -13 -277
9 -157 56 -275 173 -330 329 -48 136 -16 341 72 456 34 45 113 117 151 136 20
11 39 23 42 26 3 3 34 15 70 26 65 20 206 25 271 9z m1811 -1696 c89 -16 179
-63 248 -129 56 -53 111 -123 114 -146 1 -5 5 -15 9 -22 13 -21 36 -106 31
-114 -2 -4 -1 -10 4 -13 14 -9 5 -162 -13 -217 -58 -175 -170 -289 -345 -349
-57 -19 -200 -22 -266 -4 -355 91 -503 510 -284 801 43 56 148 145 162 137 4
-3 8 -1 8 4 0 5 19 15 43 22 23 8 48 18 55 23 6 5 12 7 12 4 0 -3 12 -2 28 2
45 12 128 13 194 1z"/>
</g>
</svg>
