<?xml version="1.0" encoding="utf-8"?>
<!-- Generator: Adobe Illustrator 26.0.3, SVG Export Plug-In . SVG Version: 6.00 Build 0)  -->
<svg version="1.1" id="Layer_1" xmlns="http://www.w3.org/2000/svg" xmlns:xlink="http://www.w3.org/1999/xlink" x="0px" y="0px"
	 viewBox="0 0 2884.42 462.5" style="enable-background:new 0 0 2884.42 462.5;" xml:space="preserve">
<style type="text/css">
	.st0{fill:#FFFFFF;}
</style>
<g>
	<g>
		<g>
			<g>
				<path class="st0" d="M1099.62,127.91v111.78h-21.83V85.35h30.43l24.91,92.38V85.35h21.6v154.33h-24.91L1099.62,127.91z"/>
			</g>
			<g>
				<path class="st0" d="M1272.75,239.68h-24.48l-4.18-28h-29.76l-4.19,28h-22.27l24.69-154.33h35.5L1272.75,239.68z
					 M1217.42,190.74h23.36l-11.69-78.05L1217.42,190.74z"/>
			</g>
			<g>
				<path class="st0" d="M1299.04,85.35H1374v22.04h-25.36v132.29h-24.25V107.4h-25.36V85.35z"/>
			</g>
			<g>
				<path class="st0" d="M1406.69,85.35h24.24v154.33h-24.24V85.35z"/>
			</g>
			<g>
				<path class="st0" d="M1468.66,122.39c0-24.69,13.02-38.8,36.82-38.8c23.81,0,36.82,14.11,36.82,38.8v80.25
					c0,24.68-13.01,38.79-36.82,38.79c-23.8,0-36.82-14.11-36.82-38.79V122.39z M1492.91,204.18c0,11.03,4.86,15.21,12.57,15.21
					c7.72,0,12.57-4.18,12.57-15.21v-83.33c0-11.02-4.85-15.21-12.57-15.21c-7.71,0-12.57,4.19-12.57,15.21V204.18z"/>
			</g>
			<g>
				<path class="st0" d="M1601.67,127.91v111.78h-21.83V85.35h30.43l24.91,92.38V85.35h21.6v154.33h-24.91L1601.67,127.91z"/>
			</g>
			<g>
				<path class="st0" d="M1774.81,239.68h-24.48l-4.18-28h-29.76l-4.19,28h-22.27l24.69-154.33h35.5L1774.81,239.68z
					 M1719.47,190.74h23.36l-11.69-78.05L1719.47,190.74z"/>
			</g>
			<g>
				<path class="st0" d="M1808.15,85.35h24.25v132.29h39.91v22.04h-64.16V85.35z"/>
			</g>
			<g>
				<path class="st0" d="M1993.87,83.59c23.59,0,35.71,14.11,35.71,38.8v4.85h-22.93v-6.39c0-11.02-4.41-15.21-12.13-15.21
					c-7.71,0-12.12,4.19-12.12,15.21c0,31.75,47.39,37.7,47.39,81.8c0,24.68-12.34,38.79-36.15,38.79
					c-23.81,0-36.15-14.11-36.15-38.79v-9.49h22.92v11.02c0,11.03,4.86,15,12.57,15c7.72,0,12.58-3.97,12.58-15
					c0-31.75-47.4-37.7-47.4-81.79C1958.15,97.7,1970.28,83.59,1993.87,83.59z"/>
			</g>
			<g>
				<path class="st0" d="M2090.04,150.39h33.29v22.04h-33.29v45.2h41.89v22.04h-66.14V85.35h66.14v22.04h-41.89V150.39z"/>
			</g>
			<g>
				<path class="st0" d="M2239.36,182.14v20.51c0,24.68-12.35,38.79-36.15,38.79c-23.81,0-36.16-14.11-36.16-38.79v-80.25
					c0-24.69,12.35-38.8,36.16-38.8c23.8,0,36.15,14.11,36.15,38.8v14.99h-22.93v-16.53c0-11.02-4.85-15.21-12.57-15.21
					c-7.71,0-12.57,4.19-12.57,15.21v83.33c0,11.03,4.86,15,12.57,15c7.72,0,12.57-3.97,12.57-15v-22.04H2239.36z"/>
			</g>
			<g>
				<path class="st0" d="M2299.39,85.35v119.06c0,11.02,4.85,14.99,12.57,14.99c7.71,0,12.57-3.97,12.57-14.99V85.35h22.92v117.51
					c0,24.69-12.34,38.8-36.15,38.8c-23.81,0-36.15-14.11-36.15-38.8V85.35H2299.39z"/>
			</g>
			<g>
				<path class="st0" d="M2436.8,239.68c-1.33-3.97-2.21-6.39-2.21-18.96v-24.25c0-14.33-4.85-19.62-15.87-19.62h-8.38v62.83h-24.25
					V85.35h36.6c25.13,0,35.94,11.69,35.94,35.5v12.13c0,15.87-5.07,26.24-15.88,31.31c12.13,5.07,16.09,16.75,16.09,32.84v23.81
					c0,7.49,0.22,13.01,2.65,18.74H2436.8z M2410.34,107.4v47.4h9.49c9.04,0,14.55-3.97,14.55-16.31v-15.21
					c0-11.02-3.75-15.88-12.35-15.88H2410.34z"/>
			</g>
			<g>
				<path class="st0" d="M2496.81,85.35h24.25v154.33h-24.25V85.35z"/>
			</g>
			<g>
				<path class="st0" d="M2553.73,85.35h74.96v22.04h-25.36v132.29h-24.25V107.4h-25.35V85.35z"/>
			</g>
			<g>
				<path class="st0" d="M2684.08,188.54l-30.64-103.19h25.36l18.52,70.33l18.52-70.33h23.15l-30.64,103.19v51.14h-24.25V188.54z"/>
			</g>
		</g>
		<g>
			<g>
				<path class="st0" d="M1111.67,276.06c10.42,0,18.15,3.24,25.23,9.7c0.94,0.84,0.94,2.09,0.11,2.92l-8.14,8.44
					c-0.73,0.73-1.88,0.73-2.61,0c-3.85-3.44-8.96-5.31-14.07-5.31c-11.78,0-20.44,9.8-20.44,21.48c0,11.57,8.76,21.16,20.54,21.16
					c4.9,0,10.22-1.77,13.97-5c0.73-0.63,2.09-0.63,2.71,0.1l8.14,8.66c0.73,0.73,0.63,2.09-0.1,2.81
					c-7.1,6.88-16.06,10.11-25.34,10.11c-20.86,0-37.64-16.58-37.64-37.43C1074.03,292.85,1090.82,276.06,1111.67,276.06z"/>
			</g>
			<g>
				<path class="st0" d="M1202.13,276.06c20.86,0,37.54,16.79,37.54,37.64c0,20.86-16.68,37.43-37.54,37.43
					c-20.85,0-37.43-16.58-37.43-37.43C1164.7,292.85,1181.28,276.06,1202.13,276.06z M1202.13,334.46
					c11.47,0,20.86-9.39,20.86-20.75c0-11.47-9.39-20.96-20.86-20.96c-11.36,0-20.75,9.49-20.75,20.96
					C1181.39,325.07,1190.77,334.46,1202.13,334.46z"/>
			</g>
			<g>
				<path class="st0" d="M1273.09,279.09c0-1.05,0.83-1.98,1.98-1.98h12.41c1.04,0,1.98,0.94,1.98,1.98v55.68h24.81
					c1.15,0,1.98,0.95,1.98,1.98v11.36c0,1.05-0.84,1.98-1.98,1.98h-39.21c-1.15,0-1.98-0.94-1.98-1.98V279.09z"/>
			</g>
			<g>
				<path class="st0" d="M1347.2,279.09c0-1.05,0.83-1.98,1.98-1.98h12.41c1.04,0,1.98,0.94,1.98,1.98v55.68h24.81
					c1.15,0,1.98,0.95,1.98,1.98v11.36c0,1.05-0.84,1.98-1.98,1.98h-39.21c-1.15,0-1.98-0.94-1.98-1.98V279.09z"/>
			</g>
			<g>
				<path class="st0" d="M1415.35,347.39l32.63-70.18c0.31-0.63,1.05-1.15,1.77-1.15h1.04c0.73,0,1.46,0.52,1.77,1.15l32.64,70.18
					c0.63,1.36-0.21,2.71-1.77,2.71h-11.57c-1.88,0-2.71-0.63-3.65-2.61l-3.75-8.24h-28.37l-3.75,8.35c-0.52,1.25-1.67,2.5-3.76,2.5
					h-11.47C1415.56,350.1,1414.73,348.75,1415.35,347.39z M1458.21,325.07l-7.92-17.2h-0.11l-7.82,17.2H1458.21z"/>
			</g>
			<g>
				<path class="st0" d="M1514.57,279.09c0-1.05,0.83-1.98,1.98-1.98h24.3c12.31,0,22.42,8.45,22.42,19.4
					c0,8.03-7.2,13.87-12.1,16.48c5.53,2.29,13.97,7.4,13.97,17c0,11.68-10.32,20.12-22.73,20.12h-25.86
					c-1.15,0-1.98-0.94-1.98-1.98V279.09z M1538.97,306.72c3.96,0,7.3-3.34,7.3-7.51c0-4.17-3.34-7.09-7.3-7.09h-8.14v14.6H1538.97z
					 M1540.32,335.19c4.07,0,7.51-3.34,7.51-7.61c0-4.17-4.49-7.3-8.55-7.3h-8.45v14.91H1540.32z"/>
			</g>
			<g>
				<path class="st0" d="M1631.31,276.06c20.86,0,37.54,16.79,37.54,37.64c0,20.86-16.68,37.43-37.54,37.43
					c-20.85,0-37.43-16.58-37.43-37.43C1593.88,292.85,1610.46,276.06,1631.31,276.06z M1631.31,334.46
					c11.47,0,20.86-9.39,20.86-20.75c0-11.47-9.39-20.96-20.86-20.96c-11.36,0-20.75,9.49-20.75,20.96
					C1610.56,325.07,1619.95,334.46,1631.31,334.46z"/>
			</g>
			<g>
				<path class="st0" d="M1702.27,279.09c0-1.05,0.83-1.98,1.98-1.98h31.18c12.51,0,22.73,10.12,22.73,22.53
					c0,9.59-6.36,17.31-15.43,20.96l14.29,26.48c0.73,1.36,0,3.02-1.77,3.02h-13.87c-0.83,0-1.45-0.52-1.66-0.94l-13.87-27.63h-7.19
					v26.59c0,1.05-0.95,1.98-1.98,1.98h-12.41c-1.15,0-1.98-0.94-1.98-1.98V279.09z M1734.07,308.28c4.28,0,7.93-3.96,7.93-8.34
					c0-4.38-3.65-7.92-7.93-7.92h-15.43v16.26H1734.07z"/>
			</g>
			<g>
				<path class="st0" d="M1783.56,347.39l32.63-70.18c0.31-0.63,1.05-1.15,1.77-1.15h1.05c0.73,0,1.45,0.52,1.77,1.15l32.64,70.18
					c0.63,1.36-0.21,2.71-1.77,2.71h-11.57c-1.88,0-2.71-0.63-3.65-2.61l-3.75-8.24h-28.37l-3.75,8.35c-0.52,1.25-1.67,2.5-3.76,2.5
					h-11.47C1783.77,350.1,1782.94,348.75,1783.56,347.39z M1826.42,325.07l-7.92-17.2h-0.11l-7.82,17.2H1826.42z"/>
			</g>
			<g>
				<path class="st0" d="M1888.42,292.44h-14.92c-1.14,0-1.98-0.94-1.98-1.98v-11.36c0-1.05,0.84-1.98,1.98-1.98h46.3
					c1.15,0,1.98,0.94,1.98,1.98v11.36c0,1.05-0.84,1.98-1.98,1.98h-14.91v55.68c0,1.05-0.94,1.98-1.98,1.98h-12.51
					c-1.04,0-1.98-0.94-1.98-1.98V292.44z"/>
			</g>
			<g>
				<path class="st0" d="M1953.02,279.09c0-1.05,0.94-1.98,1.98-1.98h12.51c1.05,0,1.98,0.94,1.98,1.98v69.03
					c0,1.05-0.94,1.98-1.98,1.98H1955c-1.04,0-1.98-0.94-1.98-1.98V279.09z"/>
			</g>
			<g>
				<path class="st0" d="M2040.37,276.06c20.86,0,37.54,16.79,37.54,37.64c0,20.86-16.68,37.43-37.54,37.43
					c-20.85,0-37.43-16.58-37.43-37.43C2002.94,292.85,2019.52,276.06,2040.37,276.06z M2040.37,334.46
					c11.47,0,20.86-9.39,20.86-20.75c0-11.47-9.39-20.96-20.86-20.96c-11.36,0-20.75,9.49-20.75,20.96
					C2019.62,325.07,2029.01,334.46,2040.37,334.46z"/>
			</g>
			<g>
				<path class="st0" d="M2111.22,277.94c0-1.04,0.94-1.88,1.98-1.88h2.6l41.61,40.04h0.11v-37.02c0-1.05,0.84-1.98,1.98-1.98h12.52
					c1.04,0,1.98,0.94,1.98,1.98v70.18c0,1.05-0.94,1.88-1.98,1.88h-1.67c-0.31,0-1.15-0.31-1.35-0.52l-41.19-41.4h-0.1v38.89
					c0,1.05-0.84,1.98-1.98,1.98h-12.41c-1.04,0-1.98-0.94-1.98-1.98L2111.22,277.94z"/>
			</g>
			<g>
				<path class="st0" d="M2288.94,276.06c10.43,0,18.15,3.24,25.23,9.7c0.94,0.84,0.94,2.09,0.11,2.92l-8.14,8.44
					c-0.73,0.73-1.88,0.73-2.61,0c-3.85-3.44-8.96-5.31-14.07-5.31c-11.78,0-20.44,9.8-20.44,21.48c0,11.57,8.76,21.16,20.54,21.16
					c4.9,0,10.22-1.77,13.97-5c0.73-0.63,2.09-0.63,2.71,0.1l8.14,8.66c0.73,0.73,0.63,2.09-0.1,2.81
					c-7.1,6.88-16.06,10.11-25.34,10.11c-20.86,0-37.64-16.58-37.64-37.43C2251.3,292.85,2268.09,276.06,2288.94,276.06z"/>
			</g>
			<g>
				<path class="st0" d="M2347.6,279.09c0-1.05,0.83-1.98,1.98-1.98h43.17c1.15,0,1.98,0.94,1.98,1.98v11.36
					c0,1.05-0.84,1.98-1.98,1.98h-28.88v12.93h23.78c1.04,0,1.98,0.94,1.98,1.98v11.37c0,1.14-0.94,1.98-1.98,1.98h-23.78v14.07
					h28.88c1.15,0,1.98,0.95,1.98,1.98v11.36c0,1.05-0.84,1.98-1.98,1.98h-43.17c-1.15,0-1.98-0.94-1.98-1.98V279.09z"/>
			</g>
			<g>
				<path class="st0" d="M2429.41,277.94c0-1.04,0.94-1.88,1.98-1.88h2.6l41.61,40.04h0.11v-37.02c0-1.05,0.84-1.98,1.98-1.98h12.52
					c1.04,0,1.98,0.94,1.98,1.98v70.18c0,1.05-0.94,1.88-1.98,1.88h-1.67c-0.31,0-1.15-0.31-1.35-0.52l-41.19-41.4h-0.1v38.89
					c0,1.05-0.84,1.98-1.98,1.98h-12.41c-1.04,0-1.98-0.94-1.98-1.98L2429.41,277.94z"/>
			</g>
			<g>
				<path class="st0" d="M2540.31,292.44h-14.91c-1.14,0-1.98-0.94-1.98-1.98v-11.36c0-1.05,0.84-1.98,1.98-1.98h46.3
					c1.15,0,1.98,0.94,1.98,1.98v11.36c0,1.05-0.83,1.98-1.98,1.98h-14.91v55.68c0,1.05-0.94,1.98-1.98,1.98h-12.51
					c-1.04,0-1.98-0.94-1.98-1.98V292.44z"/>
			</g>
			<g>
				<path class="st0" d="M2604.93,279.09c0-1.05,0.83-1.98,1.98-1.98h43.17c1.15,0,1.98,0.94,1.98,1.98v11.36
					c0,1.05-0.84,1.98-1.98,1.98h-28.88v12.93h23.78c1.04,0,1.98,0.94,1.98,1.98v11.37c0,1.14-0.94,1.98-1.98,1.98h-23.78v14.07
					h28.88c1.15,0,1.98,0.95,1.98,1.98v11.36c0,1.05-0.84,1.98-1.98,1.98h-43.17c-1.15,0-1.98-0.94-1.98-1.98V279.09z"/>
			</g>
			<g>
				<path class="st0" d="M2686.85,279.09c0-1.05,0.83-1.98,1.98-1.98H2720c12.51,0,22.73,10.12,22.73,22.53
					c0,9.59-6.36,17.31-15.43,20.96l14.29,26.48c0.73,1.36,0,3.02-1.77,3.02h-13.87c-0.83,0-1.45-0.52-1.66-0.94l-13.87-27.63h-7.19
					v26.59c0,1.05-0.95,1.98-1.98,1.98h-12.41c-1.15,0-1.98-0.94-1.98-1.98V279.09z M2718.64,308.28c4.28,0,7.93-3.96,7.93-8.34
					c0-4.38-3.65-7.92-7.93-7.92h-15.43v16.26H2718.64z"/>
			</g>
		</g>
	</g>
	<g>
		<path class="st0" d="M713.05,90.32L643.4,271.38c0.37-4.18,0.55-8.38,0.55-12.56c0-41.12-27.29-58.97-62.69-69.42l-16.84-5.06
			c-11.45-3.69-29.33-9.44-29.33-24.27c0-14.15,16.19-21.19,28.32-21.19c16.18,0,31.7,6.7,43.81,16.83l26.28-51.21
			c-22.6-12.83-53.91-20.92-79.53-20.92c-31.69,0-57.88,13.08-73.13,35.38V90.32h-160.4h-14.83h-51.22V224.1
			c0,33.04-2.37,69.08-44.81,69.08c-42.46,0-44.81-36.04-44.81-69.08V90.32H98.72v142.89c0,32.67,1.35,65.03,26.61,89.62
			c21.24,20.9,54.61,28.31,84.25,28.31c29.67,0,63.01-7.4,84.25-28.31c25.27-24.59,26.61-56.95,26.61-89.62v-86.93h39.78v198.13
			h66.04V146.28h42.76c-1.68,7.07-2.66,14.57-2.66,22.56c0,49.21,27.3,60,68.73,71.77c14.17,4.06,40.13,10.47,40.13,29.01
			c0,17.82-16.53,25.59-32.02,25.59c-22.57,0-42.12-11.79-58.65-26.29l-28.28,53.25c25.95,18.2,57.28,28.97,89.29,28.97
			c25.59,0,52.24-7.05,72.11-23.91c2.49-2.12,4.77-4.37,6.84-6.74l-9.2,23.91h70.1l17.53-44.14h91l16.49,44.14h70.43L785.15,90.32
			H713.05z M721.12,249.7l27.29-80.86h0.7l26.94,80.86H721.12z"/>
		<path class="st0" d="M900.09,311.53h-0.12c-9.77,0-17.56,7.6-17.56,17.06c0,9.65,7.79,17.15,17.56,17.15
			c9.89,0,17.47-7.49,17.47-17.15C917.44,319.13,909.86,311.53,900.09,311.53z M900.09,342.19c-7.7,0-13.32-6.02-13.32-13.6
			c0-7.47,5.61-13.61,13.09-13.61h0.11c7.6,0,13.12,6.14,13.12,13.61C913.09,336.17,907.57,342.29,900.09,342.19z"/>
		<path class="st0" d="M903.93,329.11v-0.21c2.08-0.62,3.53-2.07,3.53-4.04c0-1.59-0.73-2.95-1.65-3.64
			c-1.25-0.85-2.72-1.37-5.94-1.37c-2.79,0-4.96,0.34-6.53,0.65v16.92h3.93v-6.76h1.89c2.17,0,3.21,0.85,3.51,2.71
			c0.52,1.99,0.85,3.43,1.36,4.05h4.26c-0.42-0.53-0.73-1.56-1.23-4.16C906.53,330.98,905.58,329.64,903.93,329.11z M899.25,327.88
			h-1.88v-4.92c0.42-0.11,1.15-0.2,2.18-0.2c2.51,0,3.63,1.04,3.63,2.61C903.19,327.13,901.44,327.88,899.25,327.88z"/>
	</g>
	<g>
		<polygon class="st0" points="992.93,49.19 993.17,90.67 993.26,132.15 993.43,215.1 993.26,298.05 993.17,339.52 992.93,381 
			992.68,339.52 992.59,298.05 992.43,215.1 992.6,132.15 992.68,90.67 		"/>
	</g>
</g>
</svg>
