<?xml version="1.0" encoding="utf-8"?>
<!-- Generator: Adobe Illustrator 26.0.3, SVG Export Plug-In . SVG Version: 6.00 Build 0)  -->
<svg version="1.1" id="Base_Layer" xmlns="http://www.w3.org/2000/svg" xmlns:xlink="http://www.w3.org/1999/xlink" x="0px" y="0px"
	 viewBox="0 0 1039.85 850" style="enable-background:new 0 0 1039.85 850;" xml:space="preserve">
<style type="text/css">
	.st0{fill:#FFFFFF;}
</style>
<g>
	<path class="st0" d="M786.68,380.42l252.66,381.26V42.5H926.96c26.68,35.52,42.49,79.66,42.49,127.5
		C969.45,277.27,889.96,365.95,786.68,380.42z"/>
	<path class="st0" d="M536.95,680L536.95,680c0,23.47-19.03,42.5-42.5,42.5h-174.9v85h648.19l-281.65-425H371.6v85h242.85
		c23.47,0,42.5,19.03,42.5,42.5v0c0,23.47-19.03,42.5-42.5,42.5H147.83v85h346.62C517.92,637.5,536.95,656.53,536.95,680z"/>
	<path class="st0" d="M756.95,42.5H428.12v85h120.59h88H766.4c23.47,0,42.5,19.03,42.5,42.5v0c0,23.47-19.03,42.5-42.5,42.5H636.71
		H548.7H197.35v85h389.59h170.01c70.42,0,127.5-57.08,127.5-127.5S827.36,42.5,756.95,42.5z"/>
</g>
<g id="Os">
	<path class="st0" d="M268.55,680c-46.94,0-85,38.06-85,85s38.06,85,85,85s85-38.06,85-85S315.5,680,268.55,680z M268.55,816
		c-28.17,0-51-22.83-51-51c0-28.17,22.83-51,51-51s51,22.83,51,51C319.55,793.17,296.72,816,268.55,816z"/>
	<path class="st0" d="M85,510c-46.94,0-85,38.06-85,85s38.06,85,85,85s85-38.06,85-85S131.94,510,85,510z M85,646
		c-28.17,0-51-22.83-51-51c0-28.17,22.83-51,51-51s51,22.83,51,51C136,623.17,113.17,646,85,646z"/>
	<path class="st0" d="M306,340c-46.94,0-85,38.06-85,85s38.06,85,85,85s85-38.06,85-85S352.94,340,306,340z M306,476
		c-28.17,0-51-22.83-51-51c0-28.17,22.83-51,51-51s51,22.83,51,51C357,453.17,334.17,476,306,476z"/>
	<path class="st0" d="M129.35,170c-46.94,0-85,38.06-85,85s38.06,85,85,85s85-38.06,85-85S176.29,170,129.35,170z M129.35,306
		c-28.17,0-51-22.83-51-51c0-28.17,22.83-51,51-51s51,22.83,51,51C180.35,283.17,157.52,306,129.35,306z"/>
	<path class="st0" d="M371.6,0c-46.94,0-85,38.06-85,85s38.06,85,85,85s85-38.06,85-85S418.54,0,371.6,0z M371.6,136
		c-28.17,0-51-22.83-51-51c0-28.17,22.83-51,51-51s51,22.83,51,51C422.6,113.17,399.77,136,371.6,136z"/>
</g>
</svg>
